<svg xmlns="http://www.w3.org/2000/svg" xmlns:xlink="http://www.w3.org/1999/xlink" contentStyleType="text/css" height="1739px" preserveAspectRatio="none" style="width:1170px;height:1739px;background:#FFFFFF;" version="1.1" viewBox="0 0 1170 1739" width="1170px" zoomAndPan="magnify"><defs/><g><!--cluster SIMPA--><g id="cluster_SIMPA"><rect fill="none" height="808" rx="2.5" ry="2.5" style="stroke:#181818;stroke-width:1.0;" width="1023.86" x="140.92" y="323.11"/><text fill="#000000" font-family="sans-serif" font-size="14" font-weight="bold" lengthAdjust="spacing" textLength="44.3379" x="630.6811" y="339.6432">SIMPA</text></g><g id="elem_CU11"><ellipse cx="1023.2343" cy="1000.1109" fill="#F1F1F1" rx="68.2543" ry="16.0509" style="stroke:#006633;stroke-width:0.5;"/><text fill="#000000" font-family="sans-serif" font-size="14" lengthAdjust="spacing" textLength="82.4893" x="978.9896" y="1004.6275">CU-11 Log in</text></g><g id="elem_CU12"><ellipse cx="273.4416" cy="832.1065" fill="#F1F1F1" rx="109.7816" ry="27.9865" style="stroke:#006633;stroke-width:0.5;"/><text fill="#000000" font-family="sans-serif" font-size="14" lengthAdjust="spacing" textLength="138.5098" x="201.1867" y="827.8184">CU-12 Manage blocks</text><text fill="#000000" font-family="sans-serif" font-size="14" lengthAdjust="spacing" textLength="79.3789" x="230.7522" y="845.4278">and varieties</text></g><g id="elem_CU13"><ellipse cx="273.4355" cy="914.1091" fill="#F1F1F1" rx="84.5455" ry="19.3091" style="stroke:#006633;stroke-width:0.5;"/><text fill="#000000" font-family="sans-serif" font-size="14" lengthAdjust="spacing" textLength="125.2822" x="210.7944" y="917.8376">CU-13 Manage staff</text></g><g id="elem_CU07"><ellipse cx="273.438" cy="996.1077" fill="#F1F1F1" rx="95.718" ry="27.9177" style="stroke:#006633;stroke-width:0.5;"/><text fill="#000000" font-family="sans-serif" font-size="14" lengthAdjust="spacing" textLength="119.0479" x="211.6937" y="991.6283">CU-07 Plan weekly</text><text fill="#000000" font-family="sans-serif" font-size="14" lengthAdjust="spacing" textLength="32.6758" x="254.8797" y="1009.2377">tasks</text></g><g id="elem_CU04"><ellipse cx="639.5776" cy="478.1056" fill="#F1F1F1" rx="97.3876" ry="27.9256" style="stroke:#006633;stroke-width:0.5;"/><text fill="#000000" font-family="sans-serif" font-size="14" lengthAdjust="spacing" textLength="121.3652" x="576.0778" y="473.7734">CU-04 Record farm</text><text fill="#000000" font-family="sans-serif" font-size="14" lengthAdjust="spacing" textLength="25.6758" x="623.9225" y="491.3828">task</text></g><g id="elem_CU14"><ellipse cx="273.4427" cy="569.1143" fill="#F1F1F1" rx="116.5227" ry="28.0143" style="stroke:#006633;stroke-width:0.5;"/><text fill="#000000" font-family="sans-serif" font-size="14" lengthAdjust="spacing" textLength="147.834" x="196.5257" y="564.8262">CU-14 Record progress</text><text fill="#000000" font-family="sans-serif" font-size="14" lengthAdjust="spacing" textLength="46.6963" x="247.0945" y="582.4355">per unit</text></g><g id="elem_CU08"><ellipse cx="273.4438" cy="478.1085" fill="#F1F1F1" rx="112.5838" ry="27.9985" style="stroke:#006633;stroke-width:0.5;"/><text fill="#000000" font-family="sans-serif" font-size="14" lengthAdjust="spacing" textLength="142.3857" x="199.2509" y="473.8204">CU-08 Check progress</text><text fill="#000000" font-family="sans-serif" font-size="14" lengthAdjust="spacing" textLength="49.8203" x="245.5336" y="491.4297">and pay</text></g><g id="elem_CU09"><ellipse cx="273.4416" cy="387.1065" fill="#F1F1F1" rx="109.7816" ry="27.9865" style="stroke:#006633;stroke-width:0.5;"/><text fill="#000000" font-family="sans-serif" font-size="14" lengthAdjust="spacing" textLength="138.5098" x="201.1867" y="382.8184">CU-09 Report incident</text><text fill="#000000" font-family="sans-serif" font-size="14" lengthAdjust="spacing" textLength="80.9238" x="229.9797" y="400.4278">from the field</text></g><g id="elem_CU15"><ellipse cx="639.5765" cy="647.1133" fill="#F1F1F1" rx="132.6165" ry="28.9233" style="stroke:#006633;stroke-width:0.5;"/><text fill="#000000" font-family="sans-serif" font-size="14" lengthAdjust="spacing" textLength="176.6338" x="548.2596" y="642.8252">CU-15 Record phytosanitary</text><text fill="#000000" font-family="sans-serif" font-size="14" lengthAdjust="spacing" textLength="65.3652" x="603.8939" y="660.4346">monitoring</text></g><g id="elem_CU03"><ellipse cx="639.5752" cy="1000.1071" fill="#F1F1F1" rx="122.7252" ry="28.0371" style="stroke:#006633;stroke-width:0.5;"/><text fill="#000000" font-family="sans-serif" font-size="14" lengthAdjust="spacing" textLength="156.4131" x="558.3686" y="995.819">CU-03 Record pollination</text><text fill="#000000" font-family="sans-serif" font-size="14" lengthAdjust="spacing" textLength="94.9512" x="589.0996" y="1013.4284">and GPS count</text></g><g id="elem_CU01"><ellipse cx="639.5756" cy="387.1078" fill="#F1F1F1" rx="99.6556" ry="27.9378" style="stroke:#006633;stroke-width:0.5;"/><text fill="#000000" font-family="sans-serif" font-size="14" lengthAdjust="spacing" textLength="124.5029" x="574.3241" y="382.8198">CU-01 Analyze pest</text><text fill="#000000" font-family="sans-serif" font-size="14" lengthAdjust="spacing" textLength="64.5723" x="604.2894" y="400.4291">image (AI)</text></g><g id="elem_CU02"><ellipse cx="639.5828" cy="739.1086" fill="#F1F1F1" rx="129.6428" ry="28.3286" style="stroke:#006633;stroke-width:0.5;"/><text fill="#000000" font-family="sans-serif" font-size="14" lengthAdjust="spacing" textLength="168.0889" x="552.5384" y="734.8205">CU-02 Diagnose nutritional</text><text fill="#000000" font-family="sans-serif" font-size="14" lengthAdjust="spacing" textLength="88.6963" x="592.2347" y="752.4298">deficiency (AI)</text></g><g id="elem_CU06"><ellipse cx="639.5831" cy="830.1065" fill="#F1F1F1" rx="107.5231" ry="27.9765" style="stroke:#006633;stroke-width:0.5;"/><text fill="#000000" font-family="sans-serif" font-size="14" lengthAdjust="spacing" textLength="135.3857" x="568.8902" y="825.8184">CU-06 Classify bunch</text><text fill="#000000" font-family="sans-serif" font-size="14" lengthAdjust="spacing" textLength="76.2275" x="598.4693" y="843.4277">maturity (AI)</text></g><g id="elem_CU16"><ellipse cx="273.437" cy="660.1134" fill="#F1F1F1" rx="84.117" ry="27.9034" style="stroke:#006633;stroke-width:0.5;"/><text fill="#000000" font-family="sans-serif" font-size="14" lengthAdjust="spacing" textLength="102.7168" x="222.0786" y="655.0372">CU-16 Generate</text><text fill="#000000" font-family="sans-serif" font-size="14" lengthAdjust="spacing" textLength="61.4688" x="242.7026" y="672.6466">early alert</text></g><g id="elem_CU10"><ellipse cx="273.4411" cy="1087.1068" fill="#F1F1F1" rx="92.3611" ry="27.9068" style="stroke:#006633;stroke-width:0.5;"/><text fill="#000000" font-family="sans-serif" font-size="14" lengthAdjust="spacing" textLength="114.3584" x="215.2157" y="1082.3223">CU-10 Record mill</text><text fill="#000000" font-family="sans-serif" font-size="14" lengthAdjust="spacing" textLength="46.7031" x="249.0433" y="1099.9316">grading</text></g><g id="elem_CU17"><ellipse cx="273.4439" cy="746.1148" fill="#F1F1F1" rx="103.2239" ry="23.0448" style="stroke:#006633;stroke-width:0.5;"/><text fill="#000000" font-family="sans-serif" font-size="14" lengthAdjust="spacing" textLength="168.0752" x="189.4063" y="749.8433">CU-17 Estimate production</text></g><g id="elem_CU05"><ellipse cx="639.5786" cy="562.1117" fill="#F1F1F1" rx="92.2086" ry="20.8417" style="stroke:#006633;stroke-width:0.5;"/><text fill="#000000" font-family="sans-serif" font-size="14" lengthAdjust="spacing" textLength="143.1787" x="567.9892" y="565.8402">CU-05 Generate report</text></g><g id="elem_CU18"><ellipse cx="1023.2323" cy="550.1067" fill="#F1F1F1" rx="125.5423" ry="28.0467" style="stroke:#006633;stroke-width:0.5;"/><text fill="#000000" font-family="sans-serif" font-size="14" lengthAdjust="spacing" textLength="160.3096" x="940.0775" y="545.8186">CU-18 Explain automated</text><text fill="#000000" font-family="sans-serif" font-size="14" lengthAdjust="spacing" textLength="51.3652" x="994.5497" y="563.428">decision</text></g><!--entity ADM--><g id="elem_ADM"><ellipse cx="49.9585" cy="875" fill="#F1F1F1" rx="8" ry="8" style="stroke:#006633;stroke-width:0.5;"/><path d="M49.9585,883 L49.9585,910 M36.9585,891 L62.9585,891 M49.9585,910 L36.9585,925 M49.9585,910 L62.9585,925 " fill="none" style="stroke:#006633;stroke-width:0.5;"/><text fill="#000000" font-family="sans-serif" font-size="14" lengthAdjust="spacing" textLength="49.8066" x="9.5" y="941.0332">General</text><text fill="#000000" font-family="sans-serif" font-size="14" lengthAdjust="spacing" textLength="80.917" x="9.5" y="958.6426">administrator</text></g><!--entity AST--><g id="elem_AST"><ellipse cx="273.4388" cy="1159" fill="#F1F1F1" rx="8" ry="8" style="stroke:#006633;stroke-width:0.5;"/><path d="M273.4388,1167 L273.4388,1194 M260.4388,1175 L286.4388,1175 M273.4388,1194 L260.4388,1209 M273.4388,1194 L286.4388,1209 " fill="none" style="stroke:#006633;stroke-width:0.5;"/><text fill="#000000" font-family="sans-serif" font-size="14" lengthAdjust="spacing" textLength="90.248" x="218.97" y="1225.0332">Administrator /</text><text fill="#000000" font-family="sans-serif" font-size="14" lengthAdjust="spacing" textLength="108.9375" x="218.97" y="1242.6426">Technical advisor</text></g><!--entity ASI--><g id="elem_ASI"><ellipse cx="49.9585" cy="114" fill="#F1F1F1" rx="8" ry="8" style="stroke:#006633;stroke-width:0.5;"/><path d="M49.9585,122 L49.9585,149 M36.9585,130 L62.9585,130 M49.9585,149 L36.9585,164 M49.9585,149 L62.9585,164 " fill="none" style="stroke:#006633;stroke-width:0.5;"/><text fill="#000000" font-family="sans-serif" font-size="14" lengthAdjust="spacing" textLength="87.917" x="6" y="180.0332">Administrative</text><text fill="#000000" font-family="sans-serif" font-size="14" lengthAdjust="spacing" textLength="55.248" x="6" y="197.6426">assistant</text></g><!--entity JPO--><g id="elem_JPO"><ellipse cx="273.4398" cy="1361" fill="#F1F1F1" rx="8" ry="8" style="stroke:#006633;stroke-width:0.5;"/><path d="M273.4398,1369 L273.4398,1396 M260.4398,1377 L286.4398,1377 M273.4398,1396 L260.4398,1411 M273.4398,1396 L286.4398,1411 " fill="none" style="stroke:#006633;stroke-width:0.5;"/><text fill="#000000" font-family="sans-serif" font-size="14" lengthAdjust="spacing" textLength="64.5996" x="241.14" y="1427.0332">Pollination</text><text fill="#000000" font-family="sans-serif" font-size="14" lengthAdjust="spacing" textLength="64.5791" x="241.14" y="1444.6426">supervisor</text></g><!--entity TRA--><g id="elem_TRA"><ellipse cx="49.9634" cy="244" fill="#F1F1F1" rx="8" ry="8" style="stroke:#006633;stroke-width:0.5;"/><path d="M49.9634,252 L49.9634,279 M36.9634,260 L62.9634,260 M49.9634,279 L36.9634,294 M49.9634,279 L62.9634,294 " fill="none" style="stroke:#006633;stroke-width:0.5;"/><text fill="#000000" font-family="sans-serif" font-size="14" lengthAdjust="spacing" textLength="32.6621" x="28.96" y="310.0332">Farm</text><text fill="#000000" font-family="sans-serif" font-size="14" lengthAdjust="spacing" textLength="42.0068" x="28.96" y="327.6426">worker</text></g><!--entity EXT--><g id="elem_EXT"><ellipse cx="49.9605" cy="1207" fill="#F1F1F1" rx="8" ry="8" style="stroke:#006633;stroke-width:0.5;"/><path d="M49.9605,1215 L49.9605,1242 M36.9605,1223 L62.9605,1223 M49.9605,1242 L36.9605,1257 M49.9605,1242 L62.9605,1257 " fill="none" style="stroke:#006633;stroke-width:0.5;"/><text fill="#000000" font-family="sans-serif" font-size="14" lengthAdjust="spacing" textLength="20.9932" x="18.44" y="1273.0332">Mill</text><text fill="#000000" font-family="sans-serif" font-size="14" lengthAdjust="spacing" textLength="63.041" x="18.44" y="1290.6426">technician</text></g><!--entity IA--><g id="elem_IA"><ellipse cx="1023.2381" cy="14" fill="#F1F1F1" rx="8" ry="8" style="stroke:#006633;stroke-width:0.5;"/><path d="M1023.2381,22 L1023.2381,49 M1010.2381,30 L1036.2381,30 M1023.2381,49 L1010.2381,64 M1023.2381,49 L1036.2381,64 " fill="none" style="stroke:#006633;stroke-width:0.5;"/><text fill="#000000" font-family="sans-serif" font-size="14" lengthAdjust="spacing" textLength="67.6963" x="989.39" y="80.0332">AI analysis</text><text fill="#000000" font-family="sans-serif" font-size="14" lengthAdjust="spacing" textLength="44.3447" x="989.39" y="97.6426">service</text></g><!--entity GPS--><g id="elem_GPS"><ellipse cx="1023.234" cy="143.8" fill="#F1F1F1" rx="8" ry="8" style="stroke:#006633;stroke-width:0.5;"/><path d="M1023.234,151.8 L1023.234,178.8 M1010.234,159.8 L1036.234,159.8 M1023.234,178.8 L1010.234,193.8 M1023.234,178.8 L1036.234,193.8 " fill="none" style="stroke:#006633;stroke-width:0.5;"/><text fill="#000000" font-family="sans-serif" font-size="14" lengthAdjust="spacing" textLength="83.248" x="981.61" y="209.8332">GPS receiver</text></g><g id="elem_GMN62"><path d="M889.2,247.58 L889.2,306.6347 A0,0 0 0 0 889.2,306.6347 L1019.23,306.6347 L1023.23,521.58 L1027.23,306.6347 L1157.2762,306.6347 A0,0 0 0 0 1157.2762,306.6347 L1157.2762,257.58 L1147.2762,247.58 L889.2,247.58 A0,0 0 0 0 889.2,247.58 " fill="#FEFFDD" style="stroke:#181818;stroke-width:0.5;"/><path d="M1147.2762,247.58 L1147.2762,257.58 L1157.2762,257.58 L1147.2762,247.58 " fill="#FEFFDD" style="stroke:#181818;stroke-width:0.5;"/><text fill="#000000" font-family="sans-serif" font-size="13" lengthAdjust="spacing" textLength="247.0762" x="895.2" y="266.0751">CU-18 implements RNF-16 (explainability).</text><text fill="#000000" font-family="sans-serif" font-size="13" lengthAdjust="spacing" textLength="192.2007" x="895.2" y="282.4267">It is mandatorily included in every</text><text fill="#000000" font-family="sans-serif" font-size="13" lengthAdjust="spacing" textLength="216.7979" x="895.2" y="298.7782">use case with an automated decision.</text></g><!--link ADM to CU11--><g id="link_ADM_CU11"><path d="M58.97,961.8 C67.86,1015.18 82.46,1104.25 93.92,1181.11 C103.31,1244.11 84.91,1423.24 132.92,1465.11 C439.85,1732.77 924.0751,1128.716 1006.5551,1020.866 " fill="none" id="ADM-to-CU11" style="stroke:#181818;stroke-width:1.0;"/><polygon fill="#181818" points="1010.2,1016.1,1001.5553,1020.8191,1007.1626,1020.0717,1007.91,1025.6789,1010.2,1016.1" style="stroke:#181818;stroke-width:1.0;"/></g><!--link ADM to CU12--><g id="link_ADM_CU12"><path d="M90.6,895.13 C103.91,889.05 118.93,882.5 132.92,877.11 C154.76,868.68 173.2142,862.3247 195.2042,855.3047 " fill="none" id="ADM-to-CU12" style="stroke:#181818;stroke-width:1.0;"/><polygon fill="#181818" points="200.92,853.48,191.1298,852.4065,196.1568,855.0006,193.5627,860.0276,200.92,853.48" style="stroke:#181818;stroke-width:1.0;"/></g><!--link ADM to CU13--><g id="link_ADM_CU13"><path d="M90.81,914.11 C117.96,914.11 148.92,914.11 182.41,914.11 " fill="none" id="ADM-to-CU13" style="stroke:#181818;stroke-width:1.0;"/><polygon fill="#181818" points="188.41,914.11,179.41,910.11,183.41,914.11,179.41,918.11,188.41,914.11" style="stroke:#181818;stroke-width:1.0;"/></g><!--link ADM to CU07--><g id="link_ADM_CU07"><path d="M90.6,933.08 C103.91,939.16 118.93,945.71 132.92,951.11 C156.19,960.08 176.3694,966.9705 199.4794,974.2805 " fill="none" id="ADM-to-CU07" style="stroke:#181818;stroke-width:1.0;"/><polygon fill="#181818" points="205.2,976.09,197.8254,969.562,200.4328,974.5821,195.4127,977.1895,205.2,976.09" style="stroke:#181818;stroke-width:1.0;"/></g><!--link ADM to CU17--><g id="link_ADM_CU17"><path d="M71.6,866 C85.36,839.21 105.91,807.29 132.92,787.11 C149.6,774.64 164.2765,767.6857 184.2965,761.6357 " fill="none" id="ADM-to-CU17" style="stroke:#181818;stroke-width:1.0;"/><polygon fill="#181818" points="190.04,759.9,180.2677,758.6745,185.2538,761.3464,182.5819,766.3325,190.04,759.9" style="stroke:#181818;stroke-width:1.0;"/></g><!--link ADM to CU05--><g id="link_ADM_CU05"><path d="M50.19,866.28 C49.31,741.33 54.56,410.04 132.92,342.11 C219.24,267.27 283.52,300.61 389.96,342.11 C438.9,361.19 449.15,377.54 476.96,422.11 C501.76,461.83 473.84,490 506.96,523.11 C520.95,537.09 533.9725,544.3448 552.9325,550.1448 " fill="none" id="ADM-to-CU05" style="stroke:#181818;stroke-width:1.0;"/><polygon fill="#181818" points="558.67,551.9,551.2338,545.4422,553.8887,550.4374,548.8936,553.0923,558.67,551.9" style="stroke:#181818;stroke-width:1.0;"/></g><!--link ADM to CU10--><g id="link_ADM_CU10"><path d="M72.01,962.2 C85.85,988.81 106.34,1020.56 132.92,1041.11 C151.08,1055.14 167.9893,1063.1906 189.7093,1070.0606 " fill="none" id="ADM-to-CU10" style="stroke:#181818;stroke-width:1.0;"/><polygon fill="#181818" points="195.43,1071.87,188.0553,1065.3421,190.6628,1070.3621,185.6427,1072.9696,195.43,1071.87" style="stroke:#181818;stroke-width:1.0;"/></g><!--link AST to CU02--><g id="link_AST_CU02"><path d="M328.19,1174.44 C349.17,1163.4 372.36,1148.75 389.96,1131.11 C444.65,1076.26 451.3,1053.18 476.96,980.11 C506.01,897.37 450.9,852.53 506.96,785.11 C516.63,773.47 524.0013,767.3352 537.8113,760.8352 " fill="none" id="AST-to-CU02" style="stroke:#181818;stroke-width:1.0;"/><polygon fill="#181818" points="543.24,758.28,533.3935,758.4936,538.7161,760.4093,536.8003,765.7319,543.24,758.28" style="stroke:#181818;stroke-width:1.0;"/></g><!--link AST to CU15--><g id="link_AST_CU15"><path d="M328.13,1178.04 C350.26,1167.25 374.33,1151.84 389.96,1131.11 C422.8,1087.56 404.93,1064.54 419.96,1012.11 C442.74,932.66 455.73,914.98 476.96,835.11 C493.54,772.77 464.36,741.54 506.96,693.11 C516.71,682.02 523.8653,676.1637 537.3653,669.7837 " fill="none" id="AST-to-CU15" style="stroke:#181818;stroke-width:1.0;"/><polygon fill="#181818" points="542.79,667.22,532.9438,667.449,538.2694,669.3564,536.362,674.682,542.79,667.22" style="stroke:#181818;stroke-width:1.0;"/></g><!--link ASI to CU09--><g id="link_ASI_CU09"><path d="M94.19,198.78 C139.38,246.53 204.7051,315.5528 242.1851,355.1428 " fill="none" id="ASI-to-CU09" style="stroke:#181818;stroke-width:1.0;"/><polygon fill="#181818" points="246.31,359.5,243.0274,350.2143,242.8725,355.869,237.2178,355.7142,246.31,359.5" style="stroke:#181818;stroke-width:1.0;"/></g><!--link ASI to CU01--><g id="link_ASI_CU01"><path d="M94.34,153.35 C174.77,155.55 350.33,168.66 476.96,238.11 C534.52,269.67 583.7944,321.5166 612.4944,355.1366 " fill="none" id="ASI-to-CU01" style="stroke:#181818;stroke-width:1.0;"/><polygon fill="#181818" points="616.39,359.7,613.5889,350.2579,613.1437,355.8972,607.5044,355.452,616.39,359.7" style="stroke:#181818;stroke-width:1.0;"/></g><!--link JPO to CU03--><g id="link_JPO_CU03"><path d="M305.93,1395.82 C349.24,1388.44 427.46,1369.59 476.96,1325.11 C570.47,1241.08 614.9231,1096.4579 630.6331,1034.1479 " fill="none" id="JPO-to-CU03" style="stroke:#181818;stroke-width:1.0;"/><polygon fill="#181818" points="632.1,1028.33,626.0211,1036.079,630.8776,1033.1783,633.7783,1038.0348,632.1,1028.33" style="stroke:#181818;stroke-width:1.0;"/></g><!--link TRA to CU04--><g id="link_TRA_CU04"><path d="M71.25,274.95 C138.15,249.55 354.4,179.37 476.96,280.11 C530.16,323.83 461.83,380.1 506.96,432.11 C519.73,446.82 531.8652,454.7414 550.2052,461.5514 " fill="none" id="TRA-to-CU04" style="stroke:#181818;stroke-width:1.0;"/><polygon fill="#181818" points="555.83,463.64,548.7853,456.7573,551.1427,461.8995,546.0005,464.257,555.83,463.64" style="stroke:#181818;stroke-width:1.0;"/></g><!--link TRA to CU14--><g id="link_TRA_CU14"><path d="M54.84,331.21 C61.7,385.01 80.65,471.39 132.92,523.11 C145.97,536.02 157.1215,543.152 174.4515,549.832 " fill="none" id="TRA-to-CU14" style="stroke:#181818;stroke-width:1.0;"/><polygon fill="#181818" points="180.05,551.99,173.0909,545.0207,175.3846,550.1917,170.2136,552.4853,180.05,551.99" style="stroke:#181818;stroke-width:1.0;"/></g><!--link TRA to CU08--><g id="link_TRA_CU08"><path d="M66.61,330.89 C79.59,363.61 101.12,405.69 132.92,432.11 C147.93,444.57 160.7726,451.6735 179.3326,458.3335 " fill="none" id="TRA-to-CU08" style="stroke:#181818;stroke-width:1.0;"/><polygon fill="#181818" points="184.98,460.36,177.8599,453.5553,180.2738,458.6713,175.1579,461.0852,184.98,460.36" style="stroke:#181818;stroke-width:1.0;"/></g><!--link EXT to CU06--><g id="link_EXT_CU06"><path d="M81.72,1258.17 C144.67,1280.75 290.6,1322 389.96,1263.11 C459.26,1222.03 449.41,1179.8 476.96,1104.11 C500.21,1040.22 473.99,1013.56 506.96,954.11 C529.34,913.75 564.6083,882.4344 594.6783,860.0344 " fill="none" id="EXT-to-CU06" style="stroke:#181818;stroke-width:1.0;"/><polygon fill="#181818" points="599.49,856.45,589.8829,858.6188,595.4803,859.437,594.662,865.0343,599.49,856.45" style="stroke:#181818;stroke-width:1.0;"/></g><!--link EXT to CU10--><g id="link_EXT_CU10"><path d="M76.24,1198.27 C90.28,1175.73 109.63,1150.12 132.92,1133.11 C151.56,1119.49 168.7292,1111.559 190.5492,1104.659 " fill="none" id="EXT-to-CU10" style="stroke:#181818;stroke-width:1.0;"/><polygon fill="#181818" points="196.27,1102.85,186.4828,1101.7497,191.5027,1104.3575,188.8949,1109.3774,196.27,1102.85" style="stroke:#181818;stroke-width:1.0;"/></g><!--link CU01 to IA--><g id="link_CU01_IA"><path d="M647.81,358.78 C664.35,300.05 710.78,164.94 802.2,98.11 C858.22,57.14 936.7201,51.3524 983.0001,51.6424 " fill="none" id="CU01-to-IA" style="stroke:#181818;stroke-width:1.0;"/><polygon fill="#181818" points="989,51.68,980.0252,47.6237,984.0001,51.6487,979.9751,55.6235,989,51.68" style="stroke:#181818;stroke-width:1.0;"/></g><!--link CU02 to IA--><g id="link_CU02_IA"><path d="M737.42,720.29 C750.88,713.74 763.16,704.94 772.2,693.11 C830.71,616.43 772.82,351.98 802.2,260.11 C824.73,189.61 834.43,167.89 889.2,118.11 C918.3,91.65 954.4732,75.6002 983.4332,65.3602 " fill="none" id="CU02-to-IA" style="stroke:#181818;stroke-width:1.0;"/><polygon fill="#181818" points="989.09,63.36,979.2714,62.5891,984.376,65.0268,981.9383,70.1315,989.09,63.36" style="stroke:#181818;stroke-width:1.0;"/></g><!--link CU06 to IA--><g id="link_CU06_IA"><path d="M730.64,814.93 C746.67,808.28 761.61,798.75 772.2,785.11 C824.39,717.83 782.47,485.94 802.2,403.11 C817.66,338.15 839.72,327.97 859.2,264.11 C878.51,200.74 848.61,170.46 889.2,118.11 C913.92,86.21 952.5804,70.6012 983.2504,62.0512 " fill="none" id="CU06-to-IA" style="stroke:#181818;stroke-width:1.0;"/><polygon fill="#181818" points="989.03,60.44,979.2864,59.0037,984.2136,61.7827,981.4347,66.7099,989.03,60.44" style="stroke:#181818;stroke-width:1.0;"/></g><!--link CU03 to GPS--><g id="link_CU03_GPS"><path d="M682.04,973.52 C712.79,951.28 752.63,916.57 772.2,875.11 C812.51,789.68 757.57,534.36 802.2,451.11 C817.31,422.9 842.72,434.54 859.2,407.11 C900.26,338.7 839.64,292.64 889.2,230.11 C911.69,201.73 945.3244,188.8923 975.4544,181.9223 " fill="none" id="CU03-to-GPS" style="stroke:#181818;stroke-width:1.0;"/><polygon fill="#181818" points="981.3,180.57,971.63,178.7013,976.4286,181.6969,973.4331,186.4955,981.3,180.57" style="stroke:#181818;stroke-width:1.0;"/></g><!--link CU09 to GPS--><g id="link_CU09_GPS"><path d="M347.84,366.2 C503.14,321.96 854.8096,221.7938 975.6696,187.3638 " fill="none" id="CU09-to-GPS" style="stroke:#181818;stroke-width:1.0;"/><polygon fill="#181818" points="981.44,185.72,971.6885,184.3388,976.6313,187.0899,973.8803,192.0327,981.44,185.72" style="stroke:#181818;stroke-width:1.0;"/></g><!--link CU04 to CU11--><g id="link_CU04_CU11"><path d="M723.82,492.57 C742.03,499.38 759.61,509.39 772.2,524.11 C820.37,580.41 761.85,625.96 802.2,688.11 C818.91,713.85 838.17,704.74 859.2,727.11 C937.85,810.76 993.9713,933.1788 1013.1313,978.2188 " fill="none" id="CU04-to-CU11" style="stroke:#181818;stroke-width:1.0;stroke-dasharray:7.0,7.0;"/><polygon fill="#181818" points="1015.48,983.74,1015.6377,973.8924,1013.5227,979.139,1008.2761,977.024,1015.48,983.74" style="stroke:#181818;stroke-width:1.0;"/><text fill="#000000" font-family="sans-serif" font-size="13" lengthAdjust="spacing" textLength="55.6563" x="803.2" y="684.6051">&#171;include&#187;</text></g><!--link CU14 to CU04--><g id="link_CU14_CU04"><path d="M355.25,548.91 C418.01,533.23 498.4688,513.1139 559.2888,497.9239 " fill="none" id="CU14-to-CU04" style="stroke:#181818;stroke-width:1.0;stroke-dasharray:7.0,7.0;"/><polygon fill="#181818" points="565.11,496.47,555.409,494.77,560.259,497.6816,557.3475,502.5316,565.11,496.47" style="stroke:#181818;stroke-width:1.0;"/><text fill="#000000" font-family="sans-serif" font-size="13" lengthAdjust="spacing" textLength="55.6563" x="420.96" y="517.3751">&#171;include&#187;</text></g><!--link CU03 to CU11--><g id="link_CU03_CU11"><path d="M762.65,1000.11 C826.22,1000.11 895.55,1000.11 948.64,1000.11 " fill="none" id="CU03-to-CU11" style="stroke:#181818;stroke-width:1.0;stroke-dasharray:7.0,7.0;"/><polygon fill="#181818" points="954.64,1000.11,945.64,996.11,949.64,1000.11,945.64,1004.11,954.64,1000.11" style="stroke:#181818;stroke-width:1.0;"/><text fill="#000000" font-family="sans-serif" font-size="13" lengthAdjust="spacing" textLength="55.6563" x="803.2" y="996.6051">&#171;include&#187;</text></g><!--link CU01 to CU18--><g id="link_CU01_CU18"><path d="M705.67,408.39 C727.04,415.77 750.79,424.38 772.2,433.11 C842.32,461.68 915.754,496.8856 965.814,521.6956 " fill="none" id="CU01-to-CU18" style="stroke:#181818;stroke-width:1.0;stroke-dasharray:7.0,7.0;"/><polygon fill="#181818" points="971.19,524.36,964.9023,516.7795,966.71,522.1397,961.3498,523.9474,971.19,524.36" style="stroke:#181818;stroke-width:1.0;"/><text fill="#000000" font-family="sans-serif" font-size="13" lengthAdjust="spacing" textLength="55.6563" x="803.2" y="444.1251">&#171;include&#187;</text></g><!--link CU02 to CU18--><g id="link_CU02_CU18"><path d="M722.68,717.05 C739.74,710.67 757.11,702.76 772.2,693.11 C788.35,682.78 786.77,673.5 802.2,662.11 C851.67,625.55 909.3178,597.183 955.2578,577.203 " fill="none" id="CU02-to-CU18" style="stroke:#181818;stroke-width:1.0;stroke-dasharray:7.0,7.0;"/><polygon fill="#181818" points="960.76,574.81,950.9115,574.7314,956.1749,576.8041,954.1021,582.0676,960.76,574.81" style="stroke:#181818;stroke-width:1.0;"/><text fill="#000000" font-family="sans-serif" font-size="13" lengthAdjust="spacing" textLength="55.6563" x="803.2" y="621.9151">&#171;include&#187;</text></g><!--link CU06 to CU18--><g id="link_CU06_CU18"><path d="M722.07,811.79 C765.7,799.19 818.65,779.19 859.2,749.11 C924.47,700.67 976.1749,625.6172 1002.4349,583.3272 " fill="none" id="CU06-to-CU18" style="stroke:#181818;stroke-width:1.0;stroke-dasharray:7.0,7.0;"/><polygon fill="#181818" points="1005.6,578.23,997.4541,583.7658,1002.9624,582.4777,1004.2505,587.986,1005.6,578.23" style="stroke:#181818;stroke-width:1.0;"/><text fill="#000000" font-family="sans-serif" font-size="13" lengthAdjust="spacing" textLength="55.6563" x="803.2" y="745.6051">&#171;include&#187;</text></g><!--link CU16 to CU01--><g id="link_CU16_CU01"><path d="M344.63,644.83 C361.47,638.18 378.01,628.67 389.96,615.11 C426.3,573.85 389,540.53 419.96,495.11 C446.71,455.87 464.8,454.93 506.96,433.11 C526.42,423.03 542.885,416.2879 563.395,409.2479 " fill="none" id="CU16-to-CU01" style="stroke:#181818;stroke-width:1.0;stroke-dasharray:7.0,7.0;"/><polygon fill="#181818" points="569.07,407.3,559.2589,406.4386,564.3408,408.9233,561.8561,414.0052,569.07,407.3" style="stroke:#181818;stroke-width:1.0;"/><text fill="#000000" font-family="sans-serif" font-size="13" lengthAdjust="spacing" textLength="53.4917" x="421.96" y="444.3251">&#171;extend&#187;</text></g><!--link CU16 to CU02--><g id="link_CU16_CU02"><path d="M340.66,677.29 C358,683.99 375.79,693.04 389.96,705.11 C409.99,722.15 397.13,743.05 419.96,756.11 C465.4,782.09 519.2948,776.7763 564.8148,764.8863 " fill="none" id="CU16-to-CU02" style="stroke:#181818;stroke-width:1.0;stroke-dasharray:7.0,7.0;"/><polygon fill="#181818" points="570.62,763.37,560.9013,761.7744,565.7823,764.6336,562.9231,769.5147,570.62,763.37" style="stroke:#181818;stroke-width:1.0;"/><text fill="#000000" font-family="sans-serif" font-size="13" lengthAdjust="spacing" textLength="53.4917" x="421.96" y="752.6051">&#171;extend&#187;</text></g><!--link CU16 to CU06--><g id="link_CU16_CU06"><path d="M343.75,675.79 C360.69,682.44 377.51,691.85 389.96,705.11 C419.99,737.07 386.46,770.81 419.96,799.11 C451.59,825.82 489.4497,835.1697 529.5797,837.4497 " fill="none" id="CU16-to-CU06" style="stroke:#181818;stroke-width:1.0;stroke-dasharray:7.0,7.0;"/><polygon fill="#181818" points="535.57,837.79,526.8114,833.2859,530.5781,837.5064,526.3576,841.273,535.57,837.79" style="stroke:#181818;stroke-width:1.0;"/><text fill="#000000" font-family="sans-serif" font-size="13" lengthAdjust="spacing" textLength="53.4917" x="421.96" y="795.6051">&#171;extend&#187;</text></g><!--link CU16 to CU15--><g id="link_CU16_CU15"><path d="M357.52,657.14 C402.13,655.55 452.1238,653.7648 502.3738,651.9648 " fill="none" id="CU16-to-CU15" style="stroke:#181818;stroke-width:1.0;stroke-dasharray:7.0,7.0;"/><polygon fill="#181818" points="508.37,651.75,499.2326,648.0747,503.3732,651.929,499.519,656.0696,508.37,651.75" style="stroke:#181818;stroke-width:1.0;"/><text fill="#000000" font-family="sans-serif" font-size="13" lengthAdjust="spacing" textLength="53.4917" x="421.96" y="649.7151">&#171;extend&#187;</text></g><!--reverse link CU07 to CU05--><g id="link_CU07_CU05"><path d="M356.5115,977.0127 C371.3915,970.4627 379.96,963.78 389.96,951.11 C450.3,874.69 375.04,820.48 419.96,734.11 C435.92,703.42 457.71,709.84 476.96,681.11 C498.1,649.56 479.18,626.99 506.96,601.11 C521.52,587.54 540.59,578.68 559.67,572.89 " fill="none" id="CU07-backto-CU05" style="stroke:#181818;stroke-width:1.0;stroke-dasharray:7.0,7.0;"/><polygon fill="#181818" points="351.02,979.43,360.8688,979.4651,355.5963,977.4156,357.6457,972.143,351.02,979.43" style="stroke:#181818;stroke-width:1.0;"/><text fill="#000000" font-family="sans-serif" font-size="13" lengthAdjust="spacing" textLength="53.4917" x="421.96" y="677.6051">&#171;extend&#187;</text></g><!--SRC=[hLPHRzis47xNhpXu3sqVx4bseZX56i1pqyB3iXbn0kp1GC189vamHGeabTGRzjztb4o5KPe-rG-6pjztn- -EToU_Wqy_unEz0zYihjSB6CDNbAYPWCOWP8o-SivApIh7wJ2B7w4MJDgc4Z2sjInXlCbh_caMnn0dz-HvxppDVTd5cjJ4TFxFdy3VF9O_zFev6GeiB5W5cfSxIpbfp2nNCZ9xBcj6-K7DiZqhSMCF0i71J9O20uBPiLmzSKgtOCA4o2ApIl-cT8vwgOJIy4iSf-bi5b3k3BhilaUAc7E7qR7oMydoYajkB9LQwH4m0ulFrvwr247uTIjlCTj9dj6LiVoH6- -nkVsE1tz42cyCMLJ_8t7bYMib19VCrMKhJLEZVext-_elJ_l2TBMLJqhliSDkRnOUk-Q24h2T9CvaYr_z_Qnb1KmoSI05T8Gx8CEMi-f3V5rlNFcHj7RXwOSewYy4HcsdZk3V25oJjZqwMjwDamJ-K2NmxipbNP8C2LEufiDBX0UXiZq9O3A7HwOvMex6kqs7RZFlHaKh2a-R3MZn6QofgU49SIyEL0DczZvcV3Oady0DPjGBr4gkc8xikIV3ytjkhLMfqP1mkXfe9BTUpD0ddiDoXza-S76vrkpWJvaFFSxfb5ffImNCU8xIRcMXLGLsXr1m5BdtF1_gE-trxGvM6KQwcAOAL8gUbAQ1yJ9FXuVEUjUmzPnKrmMPQgHFCNvLxmGMhfF-GQZHa5fUkJjwlrXzy2x31eYdy9cMcLHaoyPgxevp0vTZGTsACZkyy1zsGfp2KhZfAGxmqCXiHpaosr2Sbtxfi49flpct4faM1s02TNzxh_YnBqlLZXEjtpoeOZoady6LiPI-HNVVUTDkDiz-rNgdlHWQCtVZNlRmTf8vN7sZHSqbiCOg5pztjSgu2UBFe_-YYFOJZCUNtTG5nZGqPe514n4WeK4o0YIEQ95vP1eOr4kqkJno7Xf9HClA6xE8jfCtJW8Z2GqQ1rfItaW3WnH4BcPhqf9oCeBdD7YUjSzkMpb5lU6i4vXCkkh0HxYue14JJOwNbv7JSSI8DCGev9j-9Ec8pLzZqnzWwTjOuh6uEm-_MPJv09g-3QLlGhGa1X3joul9fBtmbr0a5RNcWxBKSg2AhiS0keRaLIsmekrauERFBswotcFNe-o12nh43nFYhcYB6QXeZxYN9ATvEsQPqmCWlLWENQzt_t2UkDtHQ-cvoy4t-IGYJU04_Gy0]--></g></svg>